<?xml version="1.0" standalone="no"?>
<!DOCTYPE svg PUBLIC "-//W3C//DTD SVG 20010904//EN"
 "http://www.w3.org/TR/2001/REC-SVG-20010904/DTD/svg10.dtd">
<svg version="1.0" xmlns="http://www.w3.org/2000/svg"
 width="250.000000pt" height="188.000000pt" viewBox="0 0 250.000000 188.000000"
 preserveAspectRatio="xMidYMid meet">
<metadata>
Created by potrace 1.16, written by Peter Selinger 2001-2019
</metadata>
<g transform="translate(0.000000,188.000000) scale(0.100000,-0.100000)"
fill="#000000" stroke="none">
<path d="M2240 1826 c-194 -67 -344 -150 -545 -300 -136 -102 -388 -348 -510
-499 -50 -61 -81 -92 -83 -82 -5 20 22 100 70 210 50 113 52 143 11 192 -28
35 -35 38 -81 38 -40 -1 -60 -8 -103 -36 -109 -73 -329 -298 -492 -504 -95
-120 -95 -120 -102 -113 -26 26 309 546 445 692 76 80 80 114 23 177 -39 43
-99 79 -132 79 -24 0 -41 -28 -41 -68 0 -20 -16 -47 -56 -93 -122 -140 -273
-394 -407 -684 -74 -160 -220 -516 -232 -566 -8 -33 17 -59 93 -96 46 -22 55
-24 67 -12 8 8 57 84 111 169 179 287 351 512 538 708 86 89 87 69 7 -122
-121 -291 -235 -697 -217 -770 6 -26 122 -96 159 -96 17 0 32 8 40 22 8 13 47
79 88 148 164 277 424 649 620 885 118 141 328 349 434 428 146 109 297 174
320 137 12 -19 44 -10 115 33 75 45 90 69 69 109 -31 58 -74 61 -209 14z"/>
</g>
</svg>
